<?xml version="1.0" encoding="utf-8"?>
<!-- Generator: Adobe Illustrator 26.5.0, SVG Export Plug-In . SVG Version: 6.00 Build 0)  -->
<svg version="1.1" id="Layer_1" xmlns="http://www.w3.org/2000/svg" xmlns:xlink="http://www.w3.org/1999/xlink" x="0px" y="0px"
	 viewBox="0 0 230 60" style="enable-background:new 0 0 230 60;" xml:space="preserve">
<style type="text/css">
	.st0{fill:#262626;}
	.st1{fill:url(#XMLID_00000135652252929516827710000015029960756931709062_);}
	.st2{fill:url(#XMLID_00000176026708892766883200000008904900013203017918_);}
	.st3{fill:url(#XMLID_00000129191769183225744720000017422065621867655581_);}
	.st4{fill-rule:evenodd;clip-rule:evenodd;fill:#F9F9F9;}
	.st5{fill-rule:evenodd;clip-rule:evenodd;fill:#D5D5D5;}
	.st6{fill:#E53525;}
	.st7{opacity:0.1;fill-rule:evenodd;clip-rule:evenodd;}
	.st8{fill:#FFFFFF;}
	.st9{fill-rule:evenodd;clip-rule:evenodd;fill:#D12027;}
	.st10{fill-rule:evenodd;clip-rule:evenodd;fill:#F1674C;}
	.st11{fill-rule:evenodd;clip-rule:evenodd;fill:#D02027;}
	.st12{fill-rule:evenodd;clip-rule:evenodd;fill:#F8B03C;}
	.st13{fill:url(#XMLID_00000155147929547960466240000012461371782608834749_);}
	.st14{fill:url(#XMLID_00000012453185561687065610000012540064022806203309_);}
	.st15{fill:url(#XMLID_00000111871365002050285130000006130905301599786412_);}
	.st16{fill:#424040;}
</style>
<g id="Logo-White_00000111900255567584433820000014367705948066568639_">
	<g id="XMLID_00000046318145307769410500000009440228335831080874_">
		<path id="XMLID_00000078733266214312178610000005116863536762514309_" class="st8" d="M56.6,40.6H54V19.4h2.6v9.4l8.7-9.4h3.3
			L59.5,29l9.3,11.7h-3.3l-7.7-9.8L56.6,32V40.6z"/>
		<path id="XMLID_00000125582811986451695610000003472904255703214228_" class="st8" d="M82.2,40.6H71.1V19.4h11.1v2.4h-8.5v5.9h8.2
			v2.4h-8.2v8h8.5V40.6z"/>
		<path id="XMLID_00000093154487090258694820000016593903598536897960_" class="st8" d="M97,21.8h-4.9v18.8h-2.6V21.8h-4.9v-2.4H97
			V21.8z"/>
		<path id="XMLID_00000080888154047840128280000003445837633244029587_" class="st8" d="M110.5,30.5c0.8,0.9,1.2,2.3,1.2,4
			c0,1.8-0.6,3.2-1.8,4.3c-1.2,1.1-2.6,1.7-4.2,1.7c-1.7,0-3.1-0.5-4.3-1.5c-1.2-1-1.9-2.4-2.1-4.1l2.5-0.6c0,1.2,0.4,2.1,1.1,2.8
			c0.7,0.7,1.6,1.1,2.7,1.1c1.1,0,1.9-0.3,2.6-1c0.7-0.7,1-1.5,1-2.3c0-0.9-0.1-1.5-0.2-2c-0.2-0.5-0.4-0.9-0.8-1.2
			c-0.4-0.3-0.7-0.6-1-0.7c-0.3-0.1-0.7-0.4-1.3-0.6l-1.4-0.6c-1.4-0.6-2.4-1.3-3.2-2.1c-0.7-0.8-1.1-1.9-1.1-3.3
			c0-1.4,0.6-2.6,1.7-3.5c1.1-0.9,2.3-1.4,3.7-1.4c2.7,0,4.6,1,5.5,3l-2,1.2c-0.8-1.2-1.9-1.9-3.4-1.9c-0.8,0-1.5,0.3-2.1,0.8
			c-0.6,0.5-0.9,1.2-0.9,2.1c0,1.3,0.9,2.2,2.7,2.9l1.4,0.6C108.4,28.8,109.7,29.6,110.5,30.5z"/>
		<path id="XMLID_00000165205646546835281690000007465174938613360279_" class="st8" d="M128.8,40.6h-2.6V30.4h-9.6v10.2h-2.6V19.4
			h2.6V28h9.6v-8.6h2.6V40.6z"/>
		<path id="XMLID_00000164497743414024831340000007831267217983924916_" class="st8" d="M148.6,22.5c2,2.1,3,4.6,3,7.6
			c0,3-1,5.5-3,7.5c-2,2-4.4,3-7.3,3c-2.9,0-5.3-1-7.3-3c-2-2-3-4.5-3-7.5c0-3,1-5.5,3-7.6c2-2.1,4.4-3.1,7.2-3.1
			C144.2,19.4,146.6,20.4,148.6,22.5z M133.6,30c0,2.3,0.8,4.3,2.3,5.9c1.5,1.6,3.4,2.4,5.5,2.4c2.1,0,4-0.8,5.5-2.4
			c1.5-1.6,2.3-3.6,2.3-5.9c0-2.3-0.7-4.3-2.2-5.9c-1.5-1.6-3.3-2.4-5.6-2.4c-2.3,0-4.1,0.8-5.6,2.4C134.3,25.7,133.6,27.7,133.6,30
			z"/>
		<path id="XMLID_00000175324609786894718280000004844902444151134860_" class="st8" d="M165.5,25.6c0,2.1-0.7,3.6-2,4.7
			c-1.4,1-3.1,1.6-5.2,1.5h-1.7v8.8H154V19.4h3.2c3,0,5.2,0.5,6.4,1.5C164.9,22,165.5,23.5,165.5,25.6z M163.1,25.5
			c0-1.5-0.6-2.6-1.9-3.1c-1-0.4-2.2-0.6-3.7-0.6h-0.9v7.6h1C161.2,29.4,163.1,28.1,163.1,25.5z"/>
	</g>
	<g id="Web_00000049215794141170580300000004763894250756415651_">
		
			<linearGradient id="XMLID_00000005984509965067095920000008266320481023186067_" gradientUnits="userSpaceOnUse" x1="170.6895" y1="17.527" x2="212.5295" y2="59.5943">
			<stop  offset="0" style="stop-color:#EE3D32"/>
			<stop  offset="0.2792" style="stop-color:#EE4033"/>
			<stop  offset="0.4664" style="stop-color:#EF4937"/>
			<stop  offset="0.6267" style="stop-color:#F1583F"/>
			<stop  offset="0.7718" style="stop-color:#F36D49"/>
			<stop  offset="0.9053" style="stop-color:#F68956"/>
			<stop  offset="1" style="stop-color:#F8A161"/>
		</linearGradient>
		
			<path id="XMLID_00000015335636009837464000000010038934085297867706_" style="fill:url(#XMLID_00000005984509965067095920000008266320481023186067_);" d="
			M195.4,19.5c0.7-0.1,1,0.7,0.8,1.7c-0.4,2-1.3,4.3-4.5,9.7c-3.5,5.8-7.1,9.8-10.5,9.7c-1.7,0-2.9-1.3-3.2-2.9
			c-0.1-0.5-0.7-0.6-1-0.3c-1.5,1.7-3.3,3-5.3,2.9c-3.2-0.2-4.4-3.6-3.1-7.3c1.2-3.4,4.4-8.4,7.8-13c0.4-0.6,0.9-0.5,1.2-0.1
			c1.2,1.7,1.8,4.1-0.1,7.1c-1.8,2.9-3.8,4.2-4.6,6.7c-0.5,1.5,0,2.8,0.6,2.9c2,0.5,3.2-1.3,6-5.7c3.3-5.2,4.8-8.7,6.4-10.9
			c0.5-0.7,0.8-0.8,1.3-0.3c0.7,0.9,1.1,3.2-0.1,5.7c-1.1,2.3-3.2,4.6-4.3,7.4c-0.7,2-1.2,3.8,0.3,3.8c1.3,0.1,3.5-1.8,5.1-4.3
			c0.3-0.5,1.1-1.6,1.1-2.1C189.6,22.5,194.3,19.7,195.4,19.5z"/>
		
			<linearGradient id="XMLID_00000058551165115600777740000003208021252773167790_" gradientUnits="userSpaceOnUse" x1="180.7695" y1="7.3144" x2="223.3657" y2="50.1421">
			<stop  offset="0" style="stop-color:#EE3D32"/>
			<stop  offset="0.2792" style="stop-color:#EE4033"/>
			<stop  offset="0.4664" style="stop-color:#EF4937"/>
			<stop  offset="0.6267" style="stop-color:#F1583F"/>
			<stop  offset="0.7718" style="stop-color:#F36D49"/>
			<stop  offset="0.9053" style="stop-color:#F68956"/>
			<stop  offset="1" style="stop-color:#F8A161"/>
		</linearGradient>
		
			<path id="XMLID_00000000927822887828210410000005523873121946467216_" style="fill:url(#XMLID_00000058551165115600777740000003208021252773167790_);" d="
			M202.2,38.9c3.5,0.1,8-3.6,10.2-7c0.3-0.4,0.7-0.4,0.9,0.1c0.2,0.4,0.1,1.8-0.9,3.2c-2.1,3.1-5.6,5.5-10,5.5
			c-7.5,0-9.1-6.5-5.8-13.1c3.3-6.6,8.9-9.1,11.4-7.6c1.3,0.8,2.2,1.5,3,2.7c0.9,1.2,0.8,4.7-1.3,7.3c-2.2,2.7-5.5,3.7-8.6,1.9
			c-0.6-0.4-1.5,0-1.6,0.7C198.6,36.4,200.3,38.8,202.2,38.9z M205.7,27c1.4-1.8,2.2-3.8,1.6-4.3c-0.9-0.7-4,1.7-6,5.8l0,0
			c-0.2,0.4,0,1,0.5,1.1C203.5,30,204.7,28.4,205.7,27z"/>
		
			<linearGradient id="XMLID_00000067941587622412070420000018048696708440164542_" gradientUnits="userSpaceOnUse" x1="194.1971" y1="-0.5844" x2="233.8785" y2="39.3127">
			<stop  offset="0" style="stop-color:#EE3D32"/>
			<stop  offset="0.2792" style="stop-color:#EE4033"/>
			<stop  offset="0.4664" style="stop-color:#EF4937"/>
			<stop  offset="0.6267" style="stop-color:#F1583F"/>
			<stop  offset="0.7718" style="stop-color:#F36D49"/>
			<stop  offset="0.9053" style="stop-color:#F68956"/>
			<stop  offset="1" style="stop-color:#F8A161"/>
		</linearGradient>
		
			<path id="XMLID_00000150097820124753998660000017028037027597943694_" style="fill:url(#XMLID_00000067941587622412070420000018048696708440164542_);" d="
			M219.2,40.4c-2,0-3.4-0.8-4.3-2.2c-0.3-0.4-0.6,1.7-1.2,2.2c-0.5,0.3-1.5-0.1-1.8-0.5c-0.3-0.4-1.1-2-0.2-4.8
			c1.3-3.9,9.7-21,13.6-26c0.4-0.6,1.1-0.4,1.5,0.2c0.7,1.3,0.7,3.4-1.2,7c-0.5,0.9-1.6,2.8-2.8,4.7c-0.3,0.6,0.3,1.2,0.8,0.9
			c0.6-0.3,1.2-0.4,1.8-0.4c4,0,4.6,5.8,2,11.5C225.2,38,221.9,40.4,219.2,40.4z M221.2,26.3c-1.7,1.8-3.4,4.4-4.8,7.4
			c0,0.1-0.1,0.7-0.1,0.8c0.1,1.1,0.5,1.2,1.5,1.5c1.4,0.3,2.6-0.1,4.9-4.6c2.2-4.4,1.9-6.6,1-6.7C222.8,24.5,222.4,25.1,221.2,26.3
			z"/>
	</g>
	<g id="KET-Light_00000015341987654719876780000014490746780531887805_">
		<circle class="st16" cx="22.2" cy="30" r="21.2"/>
		<g id="XMLID_00000013156924817390123670000009070096747033485467_">
			<path id="XMLID_00000085252955545267193150000001483615160076192156_" class="st4" d="M20.2,20.1l1-7.9h1.6l1,7.9H20.2z"/>
			<path id="XMLID_00000048482991213446804300000014683985010689458109_" class="st4" d="M16.6,20.3c0,0,2.6-0.3,5.3-0.3
				c2.7,0,5.6,0.3,5.6,0.3c0.6,0,1.3,0.5,1.4,1l0.5,2.5c0.1,0.7-0.3,1.3-1.1,1.3c0,0-2.9,0.5-6,0.5c-3.2,0-6.4-0.5-6.4-0.5
				c-0.7,0-1.2-0.6-1.1-1.3l0.4-2.5C15.4,20.7,16,20.3,16.6,20.3z"/>
			<path id="XMLID_00000012468981710000268680000006642456767900140470_" class="st4" d="M12.9,23.3c0,0,4.4-0.4,8.9-0.4
				c4.7,0,9.5,0.4,9.5,0.4c1.1,0,2,0.6,2,1.4v3.2c0,0.8-0.9,1.4-2,1.4c0,0-4.4,0.6-8.9,0.6c-4.7,0-9.5-0.6-9.5-0.6
				c-1.1,0-2-0.6-2-1.4v-3.2C10.9,24,11.8,23.3,12.9,23.3z"/>
			<path id="XMLID_00000040550784347951825550000016942216019375891369_" class="st5" d="M15.8,21.1c0,0,2.7,0.7,5.4,0.7
				c3,0,6.1-0.7,6.1-0.7s-3.1,1.6-6.1,2.4c-3.1,0.8-5.7,0.6-5.7,0.6L15.8,21.1z"/>
			<path id="XMLID_00000170972743692838950630000012028800524492490171_" class="st5" d="M11.7,24.5c0,0,4.5,0.9,8.9,0.9
				c4.8,0,10.1-0.9,10.1-0.9s-5.4,2.1-10.1,3c-4.8,0.9-8.7,0.7-8.7,0.7L11.7,24.5z"/>
			<path class="st6" d="M32,29.3H12.4c-0.7,0-1.1,3.3-1.1,4l0.9,15.4c3,1.6,6.4,2.5,10,2.5c3.7,0,7.1-0.9,10.1-2.6l0.8-15.4
				C33.1,32.5,32.7,29.3,32,29.3z"/>
			<path id="XMLID_00000018200302545314405740000007048505559371981751_" class="st7" d="M12.4,29.3H32c0.7,0-20.4,8.1-20.4,7.5
				l-0.2-3.5C11.3,32.5,11.7,29.3,12.4,29.3z"/>
			<path class="st8" d="M11.7,41.1l0.4,7.6c3,1.6,6.4,2.5,10,2.5c3.7,0,7.1-0.9,10.1-2.6l0.7-14.7c-1.1,0.9-6.6,3.9-11,5.2
				C17.7,40.5,12.4,41.1,11.7,41.1z"/>
			<g>
				<g id="Meat_00000042721368593837224940000004349097300517535143_">
					<g>
						<g id="XMLID_00000094614480162916327310000018264152229248844419_">
							<g>
								<path class="st9" d="M21.7,40.2c2.9,0,5.3,2.4,5.3,5.3c0,2.9-2.4,5.3-5.3,5.3s-5.3-2.4-5.3-5.3
									C16.5,42.6,18.8,40.2,21.7,40.2z"/>
							</g>
						</g>
						<path id="XMLID_00000096047164109515536130000004412667695713146788_" class="st10" d="M21.7,40.6c2.7,0,4.8,2.2,4.8,4.8
							c0,2.7-2.2,4.8-4.8,4.8s-4.8-2.2-4.8-4.8C16.9,42.8,19.1,40.6,21.7,40.6z"/>
					</g>
				</g>
				<g id="Inner_00000172405330857114162840000006237616005894979259_">
					<g>
						<path id="XMLID_00000170975416687190710170000011097199268827975307_" class="st11" d="M22.3,46.5c0.2,0,2.6,1,2.6,1.5
							c0,0.7-1.5,1.8-3.1,1.9c-1.6,0.1-3-1-3.2-1.8c-0.1-0.3,0.7-0.8,1.5-1.1c0.8-0.3,1.4-0.4,1.4-0.4s-0.7,0.7-0.7,0.8
							c0,0.1,0.6-0.3,0.8-0.3c0.2,0.1,0,0.5,0.1,0.5c0.1,0,0.2-0.4,0.4-0.4c0.1,0,0.5,0.3,0.6,0.3C22.7,47.3,22.1,46.5,22.3,46.5z"
							/>
						<path id="XMLID_00000113353300889950071880000011594207517855372943_" class="st11" d="M22.4,44.6c-0.1-0.1-0.6-2.7-0.2-2.9
							c0.6-0.4,2.3,0.3,3.3,1.5c1,1.2,0.9,3,0.3,3.6c-0.2,0.2-1-0.1-1.7-0.6c-0.7-0.5-1.1-1-1.1-1s1,0.2,1.1,0.1
							c0.1-0.1-0.6-0.3-0.7-0.5c0-0.2,0.4-0.3,0.3-0.4s-0.5,0-0.5-0.1c-0.1-0.1,0-0.6-0.1-0.6C22.9,43.7,22.5,44.7,22.4,44.6z"/>
						<path id="XMLID_00000127755986096453855740000017009285322713735090_" class="st11" d="M20.7,45.5c-0.1,0.2-2.1,1.8-2.5,1.5
							c-0.6-0.4-0.8-2.2-0.2-3.6c0.7-1.4,2.3-2.2,3.1-1.9c0.3,0.1,0.4,1,0.2,1.8c-0.1,0.9-0.4,1.4-0.4,1.4s-0.3-1-0.4-1
							c-0.1-0.1,0,0.7-0.1,0.8c-0.1,0.1-0.4-0.2-0.5-0.1c-0.1,0.1,0.2,0.4,0.2,0.5c-0.1,0.1-0.5,0.3-0.5,0.4
							C19.8,45.5,20.8,45.4,20.7,45.5z"/>
					</g>
				</g>
				<g id="Seed_00000029006440199411640130000015703207908256814255_">
					<path id="XMLID_00000065062068433985550230000010103634607370690956_" class="st12" d="M20.9,47.5c0,0-0.9,0.8-0.6,1.2
						C20.7,49.1,20.9,47.9,20.9,47.5z"/>
					<path id="XMLID_00000023239927393104393990000013423779951902309023_" class="st12" d="M21.7,47.8c0,0-0.3,1.2,0.2,1.3
						C22.4,49.3,21.9,48.2,21.7,47.8z"/>
					<path id="XMLID_00000010270036845936792370000003550249918764627609_" class="st12" d="M22.7,47.9c0,0,0.3,1,0.7,0.9
						C23.8,48.6,23,48,22.7,47.9z"/>
					<path id="XMLID_00000091722763338015394920000009385178044363393469_" class="st12" d="M22.9,43.3c0,0-0.1-0.8,0.3-0.9
						C23.5,42.4,23.1,43.1,22.9,43.3z"/>
					<path id="XMLID_00000010296722714940966610000017451321816549934723_" class="st12" d="M23.4,43.8c0,0,0.4-1.2,0.9-1
						C24.9,43,23.9,43.7,23.4,43.8z"/>
					<path id="XMLID_00000121997915165404108490000012029598566198419620_" class="st12" d="M24,44.4c0,0,1-0.8,1.3-0.4
						C25.7,44.5,24.5,44.5,24,44.4z"/>
					<path id="XMLID_00000157998957741396959990000008513894033450192040_" class="st12" d="M24.5,45.4c0,0,1-0.1,1,0.3
						C25.6,46,24.7,45.6,24.5,45.4z"/>
					<path id="XMLID_00000033356311801005343800000010474885349123489427_" class="st12" d="M20.7,43.4c0,0,0-0.8-0.4-0.8
						C19.9,42.6,20.4,43.2,20.7,43.4z"/>
					<path id="XMLID_00000029042616633595441610000009421907959291783044_" class="st12" d="M20.2,43.9c0,0-0.6-1.1-1.1-0.8
						C18.7,43.4,19.8,43.8,20.2,43.9z"/>
					<path id="XMLID_00000033333719507937538280000003852446395432089741_" class="st12" d="M19.7,44.6c0,0-1.1-0.6-1.4-0.2
						C18.1,44.9,19.3,44.8,19.7,44.6z"/>
					<path id="XMLID_00000013907434142680137170000002342082819072096646_" class="st12" d="M19.4,45.6c0,0-1,0-1,0.4
						C18.5,46.4,19.2,45.8,19.4,45.6z"/>
				</g>
			</g>
		</g>
	</g>
</g>
</svg>
